# Motion Analysis HTR (source:MACFileLib v1.10)
[Header]
# KeyWord<space>Value<CR>
FileType htr
DataType HTRS
FileVersion 1
NumSegments 41
NumFrames 4
DataFrameRate 30
EulerRotationOrder ZYX
CalibrationUnits mm
RotationUnits Degrees
GlobalAxisofGravity Y
BoneLengthAxis Y
ScaleFactor 1.00
[SegmentNames&Hierarchy]
# ObjectName<tab>ParentObjectName<CR>
Hips	GLOBAL
Spine	Hips
Spine1	Spine
Spine2	Spine1
Neck	Spine2
Head	Neck
HeadTop_End	Head
LeftShoulder	Spine2
LeftArm	LeftShoulder
LeftForeArm	LeftArm
LeftHand	LeftForeArm
LeftHandIndex1	LeftHand
LeftHandIndex2	LeftHandIndex1
LeftHandIndex3	LeftHandIndex2
LeftHandIndex4	LeftHandIndex3
LeftHandThumb1	LeftHand
LeftHandThumb2	LeftHandThumb1
LeftHandThumb3	LeftHandThumb2
LeftHandThumb4	LeftHandThumb3
RightShoulder	Spine2
RightArm	RightShoulder
RightForeArm	RightArm
RightHand	RightForeArm
RightHandIndex1	RightHand
RightHandIndex2	RightHandIndex1
RightHandIndex3	RightHandIndex2
RightHandIndex4	RightHandIndex3
RightHandThumb1	RightHand
RightHandThumb2	RightHandThumb1
RightHandThumb3	RightHandThumb2
RightHandThumb4	RightHandThumb3
LeftUpLeg	Hips
LeftLeg	LeftUpLeg
LeftFoot	LeftLeg
LeftToeBase	LeftFoot
LeftToe_End	LeftToeBase
RightUpLeg	Hips
RightLeg	RightUpLeg
RightFoot	RightLeg
RightToeBase	RightFoot
RightToe_End	RightToeBase
[BasePosition]
# ObjectName<tab>Tx<tab>Ty<tab>Tz<tab>Rx<tab>Ry<tab>Rz<tab>BoneLength<CR>
Hips	10.843260	822.336530	-12.690015	97.234374	-43.527032	174.849775	3.937008
Spine	4.324737	0.000000	146.524372	-0.442183	9.379665	7.284196	3.937008
Spine1	0.476847	-0.000012	103.725081	-0.871372	2.187278	0.991217	3.937009
Spine2	3.027155	-0.000007	100.849966	-0.856348	2.202505	0.983497	3.937009
Neck	2.464486	0.000000	316.849807	4.558038	0.082407	13.220577	3.937009
Head	19.208952	0.000000	114.089235	-1.036836	8.371496	20.364578	3.937008
HeadTop_End	66.694439	0.603790	369.924862	-0.000000	0.000000	-0.000000	3.937007
LeftShoulder	-27.056324	109.128627	267.327386	-8.565021	1.115038	3.547030	3.937008
LeftArm	12.156755	138.949097	-90.169079	-54.766019	-56.609800	4.454988	3.937009
LeftForeArm	-22.856521	322.461693	-1.836662	-0.302170	-0.322459	-100.929973	3.937007
LeftHand	6.704860	280.135322	1.833648	-15.846243	2.068338	-9.074463	3.937005
LeftHandIndex1	0.000496	181.096966	-0.000534	-45.798740	0.257689	3.384679	41.837211
LeftHandIndex2	-0.000038	41.837230	-0.000153	-86.015313	6.505421	5.935432	3.937006
LeftHandIndex3	0.583954	38.302139	-0.980529	-52.157137	2.263406	3.625446	48.636157
LeftHandIndex4	-0.000343	48.636150	-0.000610	-0.000000	0.000001	-0.000000	3.937006
LeftHandThumb1	38.593987	62.739667	-32.070364	-5.518769	-6.008672	-11.751710	3.937005
LeftHandThumb2	29.216023	50.601241	-29.214383	10.158932	7.276710	43.024143	3.937005
LeftHandThumb3	33.539138	58.090932	-33.538490	27.449478	-0.419794	8.105151	3.937006
LeftHandThumb4	21.745217	37.663562	-21.743805	0.000000	-0.000000	0.000000	3.937006
RightShoulder	-27.056286	-109.128618	267.326928	-4.685218	2.959488	13.044747	3.937008
RightArm	12.156795	-138.949052	-90.168787	53.058048	-45.757452	41.653591	3.937008
RightForeArm	-26.341428	-322.196183	-1.718978	0.301654	-0.307495	100.556042	3.937007
RightHand	3.692093	-280.191534	1.808625	5.808632	-7.900957	19.147129	3.937008
RightHandIndex1	-1.954288	-181.043850	0.004425	45.112084	-0.559612	-2.574045	3.937008
RightHandIndex2	-0.530930	-49.162130	0.001984	87.701702	4.310797	-5.291269	-43.013796
RightHandIndex3	-0.139179	-43.013899	0.000000	50.415822	1.243528	-3.418275	3.937006
RightHandIndex4	-0.403557	-37.222897	-0.262985	0.000003	-0.000001	0.000000	3.937008
RightHandThumb1	36.574477	-63.444746	-33.035354	2.187272	-3.531242	4.616755	3.937007
RightHandThumb2	38.019288	-43.170311	-30.958323	-13.410386	5.627328	-41.222229	3.937008
RightHandThumb3	38.604741	-49.688269	-40.804830	-27.734995	0.774354	-18.849507	3.937009
RightHandThumb4	29.049298	-31.083600	-23.540151	-0.000000	0.000000	-0.000000	3.937007
LeftUpLeg	8.584090	130.259025	-71.382379	14.394360	-34.691706	7.410785	3.937006
LeftLeg	31.445686	1.243190	-357.658221	-6.832922	58.391776	-12.949990	3.937007
LeftFoot	-57.092365	-1.117859	-401.736289	-12.911916	-21.418936	-8.391425	3.937008
LeftToeBase	167.567879	12.843742	-168.310219	0.000000	-1.594029	0.000001	3.937008
LeftToe_End	133.766076	1.147575	3.990080	-0.000000	0.000000	-0.000003	3.937007
RightUpLeg	8.584076	-130.259035	-71.382379	-25.668216	-24.284313	-10.276783	3.937008
RightLeg	31.445660	-1.243134	-357.658356	-20.790917	57.727156	-15.597428	3.937008
RightFoot	-57.092412	1.117859	-401.736472	27.286299	-24.702836	-7.771982	3.937008
RightToeBase	167.567885	-12.843706	-168.310244	0.000000	-0.012977	-0.000000	3.937010
RightToe_End	133.766079	-1.147614	3.990084	-0.000000	-0.000000	-0.000001	3.937010
[Hips]
# Tx<tab>Ty<tab>Tz<tab>Rx<tab>Ry<tab>Rz<tab>BoneScaleFactor<CR>
31	65.370602	62.453068	330.524297	0.470451	-2.746695	-8.530331	1.000000
32	64.531681	70.163256	307.432175	-0.441720	-1.906888	-10.528730	1.000000
33	63.037562	69.716675	284.622206	-1.509877	-1.335273	-12.271849	1.000000
34	61.305588	62.144075	261.735812	-2.597974	-1.342875	-12.893762	1.000000
[Spine]
# Tx<tab>Ty<tab>Tz<tab>Rx<tab>Ry<tab>Rz<tab>BoneScaleFactor<CR>
31	-0.000014	0.000000	-0.000153	0.379556	2.410260	-0.597168	1.000000
32	-0.000033	0.000000	0.000076	-0.520766	1.871266	-0.634403	1.000000
33	-0.000014	-0.000019	0.000000	-1.279641	1.350142	-0.661243	1.000000
34	-0.000005	0.000000	-0.000098	-1.487584	1.010887	-0.618933	1.000000
[Spine1]
# Tx<tab>Ty<tab>Tz<tab>Rx<tab>Ry<tab>Rz<tab>BoneScaleFactor<CR>
31	0.000029	0.000012	-0.000100	-2.513196	4.866688	-1.184483	1.000000
32	0.000029	-0.000007	-0.000024	-1.982081	3.956197	-1.046547	1.000000
33	0.000019	-0.000007	-0.000092	-1.349440	3.064934	-0.937318	1.000000
34	-0.000000	-0.000026	-0.000031	-0.825684	2.457271	-0.856422	1.000000
[Spine2]
# Tx<tab>Ty<tab>Tz<tab>Rx<tab>Ry<tab>Rz<tab>BoneScaleFactor<CR>
31	-0.000000	0.000007	-0.000084	-2.166962	4.957865	-1.265825	1.000000
32	-0.000001	0.000007	-0.000099	-1.681967	4.041914	-1.131425	1.000000
33	0.000009	0.000007	-0.000015	-1.095503	3.143448	-1.018833	1.000000
34	-0.000001	-0.000012	0.000038	-0.615307	2.527903	-0.928244	1.000000
[Neck]
# Tx<tab>Ty<tab>Tz<tab>Rx<tab>Ry<tab>Rz<tab>BoneScaleFactor<CR>
31	0.000000	0.000019	0.000229	0.420035	-3.938517	3.227961	1.000000
32	-0.000001	0.000019	0.000057	1.029092	-3.436040	3.440275	1.000000
33	-0.000000	0.000000	0.000129	1.741568	-3.094255	3.605438	1.000000
34	0.000018	0.000000	0.000057	2.532410	-2.940398	3.596276	1.000000
[Head]
# Tx<tab>Ty<tab>Tz<tab>Rx<tab>Ry<tab>Rz<tab>BoneScaleFactor<CR>
31	-0.000038	0.000000	0.000153	-6.513146	-4.670806	8.419023	1.000000
32	-0.000025	0.000038	-0.000035	-6.108955	-3.883182	9.614709	1.000000
33	-0.000021	0.000000	-0.000161	-5.663680	-3.259425	10.725405	1.000000
34	0.000015	0.000000	-0.000026	-4.872335	-2.782864	11.144456	1.000000
[HeadTop_End]
# Tx<tab>Ty<tab>Tz<tab>Rx<tab>Ry<tab>Rz<tab>BoneScaleFactor<CR>
31	-0.000061	0.000000	0.000389	0.000001	-0.000001	-0.000000	1.000000
32	-0.000033	0.000019	0.000333	0.000001	0.000000	0.000000	1.000000
33	-0.000099	0.000038	0.000237	0.000001	0.000001	0.000000	1.000000
34	-0.000033	0.000000	0.000333	0.000000	0.000001	-0.000000	1.000000
[LeftShoulder]
# Tx<tab>Ty<tab>Tz<tab>Rx<tab>Ry<tab>Rz<tab>BoneScaleFactor<CR>
31	0.000000	-0.000029	0.000076	6.379499	1.774720	2.798153	1.000000
32	-0.000011	-0.000004	-0.000081	6.939483	1.566087	2.996741	1.000000
33	0.000002	-0.000056	-0.000020	7.437122	1.406627	3.045850	1.000000
34	0.000008	-0.000062	0.000072	7.840844	1.544678	2.246521	1.000000
[LeftArm]
# Tx<tab>Ty<tab>Tz<tab>Rx<tab>Ry<tab>Rz<tab>BoneScaleFactor<CR>
31	-0.000038	0.000048	0.000153	-5.742732	-8.144162	12.119069	1.000000
32	-0.000005	-0.000024	0.000034	-5.288609	-7.491698	13.016732	0.999999
33	-0.000019	0.000010	0.000000	-4.546184	-7.894298	13.161571	1.000000
34	0.000017	0.000027	0.000014	-3.162250	-9.448705	11.758328	1.000000
[LeftForeArm]
# Tx<tab>Ty<tab>Tz<tab>Rx<tab>Ry<tab>Rz<tab>BoneScaleFactor<CR>
31	-0.000007	0.000098	0.000038	-0.021852	0.121294	-18.894988	1.000000
32	0.000007	-0.000021	0.000039	-0.019492	0.114511	-17.801988	1.000000
33	-0.000083	0.000098	0.000038	-0.017102	0.107141	-16.617519	1.000000
34	-0.000081	0.000111	0.000038	-0.014660	0.098991	-15.320238	1.000000
[LeftHand]
# Tx<tab>Ty<tab>Tz<tab>Rx<tab>Ry<tab>Rz<tab>BoneScaleFactor<CR>
31	0.000006	0.000233	0.000002	4.027354	-7.414481	0.337033	1.000001
32	0.000040	0.000085	-0.000076	3.268642	-6.987528	0.853490	1.000000
33	-0.000033	0.000212	0.000001	3.068916	-7.089006	0.787844	1.000001
34	0.000005	0.000191	0.000001	3.071773	-7.839119	0.201809	1.000001
[LeftHandIndex1]
# Tx<tab>Ty<tab>Tz<tab>Rx<tab>Ry<tab>Rz<tab>BoneScaleFactor<CR>
31	-0.000038	0.000227	0.000076	0.000000	0.000004	0.000001	1.000001
32	0.000038	0.000055	0.000153	-0.000007	0.000000	-0.000002	1.000000
33	-0.000038	0.000290	0.000076	0.000000	0.000002	0.000002	1.000001
34	0.000000	0.000200	0.000076	-0.000007	0.000001	-0.000001	1.000001
[LeftHandIndex2]
# Tx<tab>Ty<tab>Tz<tab>Rx<tab>Ry<tab>Rz<tab>BoneScaleFactor<CR>
31	-0.000038	0.000016	0.000153	0.000000	0.000001	0.000001	1.000000
32	0.000038	-0.000025	0.000000	-0.000000	-0.000000	-0.000003	1.000000
33	0.000038	0.000019	-0.000000	-0.000000	0.000003	-0.000001	1.000001
34	-0.000038	0.000010	0.000153	0.000006	0.000001	-0.000004	1.000000
[LeftHandIndex3]
# Tx<tab>Ty<tab>Tz<tab>Rx<tab>Ry<tab>Rz<tab>BoneScaleFactor<CR>
31	-0.000038	0.000020	-0.000001	-0.000000	0.000002	-0.000003	1.000000
32	-0.000038	-0.000150	-0.000000	0.000003	0.000001	0.000002	1.000000
33	-0.000076	0.000179	-0.000001	0.000000	0.000000	0.000003	1.000000
34	0.000115	0.000017	-0.000000	0.000000	0.000001	0.000002	1.000000
[LeftHandIndex4]
# Tx<tab>Ty<tab>Tz<tab>Rx<tab>Ry<tab>Rz<tab>BoneScaleFactor<CR>
31	-0.000038	0.000095	0.000076	0.000001	-0.000001	0.000001	1.000000
32	0.000038	0.000000	0.000076	0.000001	-0.000001	0.000000	1.000000
33	-0.000038	0.000026	0.000076	0.000003	-0.000001	-0.000000	1.000000
34	-0.000076	0.000022	0.000076	0.000002	0.000000	0.000000	1.000001
[LeftHandThumb1]
# Tx<tab>Ty<tab>Tz<tab>Rx<tab>Ry<tab>Rz<tab>BoneScaleFactor<CR>
31	0.000147	0.000129	-0.000027	-0.000004	0.000003	0.000002	1.000001
32	0.000012	0.000019	-0.000010	-0.000002	-0.000001	-0.000002	1.000000
33	-0.000047	0.000047	-0.000101	-0.000005	0.000001	0.000002	1.000001
34	0.000141	0.000043	0.000054	-0.000002	0.000001	0.000002	1.000001
[LeftHandThumb2]
# Tx<tab>Ty<tab>Tz<tab>Rx<tab>Ry<tab>Rz<tab>BoneScaleFactor<CR>
31	-0.000014	0.000042	-0.000024	0.000005	-0.000003	0.000001	1.000001
32	-0.000034	0.000008	-0.000081	0.000006	0.000000	0.000002	1.000000
33	-0.000020	0.000031	-0.000018	0.000005	0.000001	-0.000002	1.000000
34	0.000022	0.000038	-0.000022	0.000003	0.000001	0.000001	1.000001
[LeftHandThumb3]
# Tx<tab>Ty<tab>Tz<tab>Rx<tab>Ry<tab>Rz<tab>BoneScaleFactor<CR>
31	-0.000013	0.000044	-0.000025	0.000002	0.000000	-0.000006	1.000001
32	0.000003	0.000004	0.000150	0.000002	-0.000001	-0.000003	1.000000
33	0.000018	0.000031	0.000059	0.000000	0.000003	-0.000003	1.000000
34	0.000028	0.000048	0.000048	0.000002	0.000001	-0.000008	1.000001
[LeftHandThumb4]
# Tx<tab>Ty<tab>Tz<tab>Rx<tab>Ry<tab>Rz<tab>BoneScaleFactor<CR>
31	0.000012	0.000020	0.000046	0.000000	0.000001	0.000000	1.000001
32	0.000073	-0.000158	0.000003	0.000000	0.000000	0.000000	1.000000
33	0.000003	0.000006	0.000035	-0.000000	-0.000001	0.000001	1.000000
34	0.000010	0.000017	0.000028	0.000000	-0.000001	0.000002	1.000000
[RightShoulder]
# Tx<tab>Ty<tab>Tz<tab>Rx<tab>Ry<tab>Rz<tab>BoneScaleFactor<CR>
31	0.000019	0.000010	0.000229	-0.590944	-0.235133	-3.951195	1.000000
32	-0.000030	0.000062	0.000072	1.080344	-0.118671	-3.257366	1.000000
33	-0.000017	0.000008	0.000132	2.456902	-0.049068	-2.916139	1.000000
34	-0.000011	0.000004	0.000072	3.127678	-0.027819	-3.108232	1.000000
[RightArm]
# Tx<tab>Ty<tab>Tz<tab>Rx<tab>Ry<tab>Rz<tab>BoneScaleFactor<CR>
31	0.000020	-0.000058	-0.000159	8.276534	2.661555	2.532462	1.000000
32	-0.000004	0.000033	-0.000125	7.010171	3.745626	2.241719	1.000000
33	-0.000001	0.000011	-0.000146	4.919503	4.615960	2.916787	1.000000
34	-0.000023	-0.000006	-0.000278	3.210904	4.598514	4.034197	1.000000
[RightForeArm]
# Tx<tab>Ty<tab>Tz<tab>Rx<tab>Ry<tab>Rz<tab>BoneScaleFactor<CR>
31	0.000020	-0.000258	-0.000001	0.006672	0.060367	9.404424	1.000001
32	0.000030	-0.000136	-0.000001	0.005523	0.054042	8.402852	1.000000
33	0.000022	-0.000233	-0.000001	0.004022	0.044869	6.963951	1.000001
34	0.000024	-0.000209	-0.000001	0.002735	0.035612	5.517937	1.000001
[RightHand]
# Tx<tab>Ty<tab>Tz<tab>Rx<tab>Ry<tab>Rz<tab>BoneScaleFactor<CR>
31	-0.000075	-0.000030	0.000077	1.109634	4.287103	-3.836874	1.000000
32	-0.000038	-0.000042	0.000038	1.151175	3.659993	-4.033926	1.000000
33	-0.000036	-0.000051	0.000039	1.039731	2.799980	-4.135232	1.000000
34	-0.000037	-0.000106	0.000077	0.942292	2.084101	-4.253221	1.000000
[RightHandIndex1]
# Tx<tab>Ty<tab>Tz<tab>Rx<tab>Ry<tab>Rz<tab>BoneScaleFactor<CR>
31	-0.000020	-0.000082	0.000000	-0.000000	-0.000000	-0.000000	1.000001
32	-0.000058	-0.000041	0.000000	0.000000	0.000002	0.000001	1.000000
33	-0.000058	-0.000006	-0.000076	0.000003	0.000002	-0.000003	1.000001
34	0.000018	-0.000069	0.000000	0.000000	-0.000000	0.000001	1.000000
[RightHandIndex2]
# Tx<tab>Ty<tab>Tz<tab>Rx<tab>Ry<tab>Rz<tab>BoneScaleFactor<CR>
31	-0.000038	0.000000	0.000000	0.000007	0.000000	-0.000001	1.000000
32	0.000000	0.000019	-0.000000	0.000007	0.000002	0.000002	1.000000
33	0.000000	0.000000	0.000153	-0.000000	0.000001	-0.000003	1.000000
34	0.000000	0.000011	-0.000000	-0.000000	0.000003	-0.000003	1.000000
[RightHandIndex3]
# Tx<tab>Ty<tab>Tz<tab>Rx<tab>Ry<tab>Rz<tab>BoneScaleFactor<CR>
31	0.000057	-0.000195	-0.000038	0.000007	0.000002	-0.000003	1.000001
32	0.000057	-0.000033	-0.000038	0.000007	0.000003	-0.000001	1.000001
33	0.000019	0.000110	0.000000	0.000000	0.000004	0.000003	1.000001
34	0.000019	-0.000033	-0.000038	0.000007	0.000002	-0.000000	1.000001
[RightHandIndex4]
# Tx<tab>Ty<tab>Tz<tab>Rx<tab>Ry<tab>Rz<tab>BoneScaleFactor<CR>
31	-0.000000	-0.000025	-0.000000	-0.000003	0.000001	0.000002	1.000001
32	0.000038	-0.000011	0.000153	-0.000002	0.000000	-0.000000	1.000000
33	-0.000000	-0.000023	0.000076	-0.000003	-0.000001	-0.000000	1.000000
34	-0.000000	-0.000011	0.000076	-0.000005	0.000002	-0.000000	1.000000
[RightHandThumb1]
# Tx<tab>Ty<tab>Tz<tab>Rx<tab>Ry<tab>Rz<tab>BoneScaleFactor<CR>
31	0.000055	-0.000105	-0.000015	-0.000000	-0.000001	-0.000001	1.000001
32	0.000008	-0.000091	0.000069	0.000002	-0.000002	-0.000001	1.000000
33	-0.000022	-0.000181	-0.000015	0.000002	-0.000000	-0.000001	1.000001
34	0.000014	-0.000024	-0.000013	0.000001	-0.000002	-0.000000	1.000000
[RightHandThumb2]
# Tx<tab>Ty<tab>Tz<tab>Rx<tab>Ry<tab>Rz<tab>BoneScaleFactor<CR>
31	0.000096	0.000130	-0.000093	0.000001	-0.000001	0.000000	1.000001
32	-0.000030	0.000143	-0.000007	0.000000	-0.000000	0.000000	1.000000
33	-0.000018	0.000130	-0.000016	0.000001	-0.000003	0.000007	1.000001
34	0.000053	-0.000016	-0.000012	0.000000	-0.000002	-0.000000	1.000000
[RightHandThumb3]
# Tx<tab>Ty<tab>Tz<tab>Rx<tab>Ry<tab>Rz<tab>BoneScaleFactor<CR>
31	0.000015	0.000134	0.000061	-0.000003	0.000003	-0.000001	1.000000
32	0.000003	-0.000004	0.000073	0.000000	0.000000	-0.000002	1.000000
33	0.000015	-0.000019	0.000099	0.000000	0.000003	-0.000002	1.000000
34	0.000003	0.000149	0.000073	0.000000	0.000003	-0.000002	1.000000
[RightHandThumb4]
# Tx<tab>Ty<tab>Tz<tab>Rx<tab>Ry<tab>Rz<tab>BoneScaleFactor<CR>
31	0.000098	0.000053	-0.000037	-0.000004	0.000001	-0.000002	1.000001
32	0.000085	0.000143	-0.000007	0.000002	-0.000000	0.000000	1.000000
33	0.000018	0.000057	0.000005	-0.000001	-0.000001	0.000001	1.000001
34	0.000015	-0.000016	-0.000051	0.000002	-0.000000	-0.000001	1.000001
[LeftUpLeg]
# Tx<tab>Ty<tab>Tz<tab>Rx<tab>Ry<tab>Rz<tab>BoneScaleFactor<CR>
31	-0.000010	0.000048	-0.000153	-3.667515	9.015601	1.639077	1.000000
32	-0.000010	0.000010	0.000000	-5.164654	12.441738	3.048070	1.000000
33	-0.000010	-0.000010	0.000000	-5.890690	14.855876	3.911704	1.000000
34	-0.000011	-0.000067	0.000087	-4.798750	14.565495	3.358763	1.000000
[LeftLeg]
# Tx<tab>Ty<tab>Tz<tab>Rx<tab>Ry<tab>Rz<tab>BoneScaleFactor<CR>
31	-0.000038	-0.000019	-0.000038	-0.826015	-5.022255	1.121958	1.000000
32	0.000079	-0.000019	-0.000027	-1.551918	-6.396439	1.899079	1.000000
33	-0.000005	0.000057	0.000092	-0.878663	-9.019740	1.641727	1.000000
34	-0.000007	0.000019	0.000081	0.087506	-9.075493	1.655392	1.000000
[LeftFoot]
# Tx<tab>Ty<tab>Tz<tab>Rx<tab>Ry<tab>Rz<tab>BoneScaleFactor<CR>
31	0.000005	0.000000	0.000000	-7.980346	6.353635	-10.149337	1.000000
32	-0.000008	-0.000000	-0.000091	1.862475	3.962853	-8.618807	1.000000
33	-0.000053	-0.000038	-0.000015	10.746359	1.152341	-4.932759	1.000000
34	-0.000045	0.000000	0.000160	11.467300	-3.383497	-2.837963	0.999999
[LeftToeBase]
# Tx<tab>Ty<tab>Tz<tab>Rx<tab>Ry<tab>Rz<tab>BoneScaleFactor<CR>
31	-0.000025	-0.000002	0.000025	1.869478	-4.332990	-0.044866	1.000000
32	0.000064	-0.000036	-0.000025	0.000003	-5.459338	-0.000021	1.000000
33	-0.000006	0.000036	0.000006	0.000010	-4.541619	-0.000007	1.000000
34	-0.000070	0.000031	0.000070	-0.000002	-2.001138	-0.000000	1.000000
[LeftToe_End]
# Tx<tab>Ty<tab>Tz<tab>Rx<tab>Ry<tab>Rz<tab>BoneScaleFactor<CR>
31	-0.000079	-0.000000	-0.000004	-0.000000	-0.000000	0.000004	1.000000
32	0.000002	0.000038	0.000008	0.000000	-0.000000	0.000003	1.000000
33	-0.000047	0.000000	0.000001	0.000000	0.000000	0.000001	1.000000
34	-0.000089	0.000038	-0.000002	-0.000000	0.000000	0.000002	0.999999
[RightUpLeg]
# Tx<tab>Ty<tab>Tz<tab>Rx<tab>Ry<tab>Rz<tab>BoneScaleFactor<CR>
31	0.000024	0.000019	-0.000076	-2.491414	-2.526992	1.736450	1.000000
32	0.000005	-0.000038	0.000000	-1.738907	-5.593814	-0.196670	1.000000
33	0.000005	-0.000019	-0.000076	-1.317835	-8.134925	-1.705453	1.000000
34	-0.000006	0.000001	0.000011	-1.883800	-9.031517	-1.612994	1.000000
[RightLeg]
# Tx<tab>Ty<tab>Tz<tab>Rx<tab>Ry<tab>Rz<tab>BoneScaleFactor<CR>
31	-0.000005	0.000000	0.000054	5.549346	-4.727502	-1.968633	1.000000
32	0.000038	0.000000	0.000000	5.756353	-6.296062	5.501095	1.000000
33	-0.000005	0.000010	0.000054	5.236173	-7.160589	11.435964	1.000000
34	-0.000048	0.000029	0.000146	4.638371	-5.948989	11.401658	1.000000
[RightFoot]
# Tx<tab>Ty<tab>Tz<tab>Rx<tab>Ry<tab>Rz<tab>BoneScaleFactor<CR>
31	-0.000025	-0.000000	0.000061	-7.275333	20.906203	-7.577936	1.000000
32	0.000000	0.000019	0.000114	-8.401414	25.955539	-8.510993	1.000000
33	-0.000015	-0.000019	0.000099	-6.782520	29.974201	-4.760788	1.000000
34	0.000003	-0.000000	0.000190	-3.622819	29.547588	1.776063	1.000000
[RightToeBase]
# Tx<tab>Ty<tab>Tz<tab>Rx<tab>Ry<tab>Rz<tab>BoneScaleFactor<CR>
31	-0.000019	0.000005	0.000057	1.597669	-10.116768	-0.024211	1.000000
32	-0.000038	0.000001	0.000019	3.473138	-13.959361	-0.242376	1.000000
33	0.000000	0.000003	0.000019	0.570939	-17.530523	-0.100314	1.000000
34	-0.000038	0.000003	0.000057	1.010589	-12.320597	-0.179476	1.000000
[RightToe_End]
# Tx<tab>Ty<tab>Tz<tab>Rx<tab>Ry<tab>Rz<tab>BoneScaleFactor<CR>
31	-0.000089	0.000002	-0.000000	0.000000	-0.000000	0.000001	1.000000
32	0.000017	-0.000004	-0.000001	0.000000	-0.000000	0.000001	1.000000
33	0.000028	0.000000	-0.000000	0.000000	0.000000	0.000000	1.000000
34	-0.000002	0.000019	-0.000004	0.000000	0.000000	0.000000	1.000000
[EndOfFile]
